<?xml version="1.0" standalone="no"?><!DOCTYPE svg PUBLIC "-//W3C//DTD SVG 1.1//EN" "http://www.w3.org/Graphics/SVG/1.1/DTD/svg11.dtd"><svg t="1713545158831" class="icon" viewBox="0 0 1024 1024" version="1.1" xmlns="http://www.w3.org/2000/svg" p-id="5166" xmlns:xlink="http://www.w3.org/1999/xlink" width="200" height="200"><path d="M437.333333 64h149.333334a117.12 117.12 0 0 1 82.986666 34.346667A117.12 117.12 0 0 1 704 181.333333V213.333333h170.666667a42.666667 42.666667 0 1 1 0 85.333334H149.333333a42.666667 42.666667 0 1 1 0-85.333334h170.666667V181.333333a117.12 117.12 0 0 1 34.346667-82.986666A117.12 117.12 0 0 1 437.333333 64z m181.333334 149.333333V181.333333a31.786667 31.786667 0 0 0-9.386667-22.613333A31.786667 31.786667 0 0 0 586.666667 149.333333h-149.333334a31.786667 31.786667 0 0 0-22.613333 9.386667A31.786667 31.786667 0 0 0 405.333333 181.333333V213.333333h213.333334zM384 469.333333a42.666667 42.666667 0 1 1 85.333333 0v213.333334a42.666667 42.666667 0 1 1-85.333333 0V469.333333zM597.333333 426.666667a42.666667 42.666667 0 0 0-42.666666 42.666666v213.333334a42.666667 42.666667 0 1 0 85.333333 0V469.333333a42.666667 42.666667 0 0 0-42.666667-42.666666z" fill="#2c2c2c" p-id="5167"></path><path d="M213.333333 341.333333a42.666667 42.666667 0 0 1 42.666667 42.666667v444.288c0 24.362667 20.757333 46.378667 49.237333 46.378667h413.525334C747.242667 874.666667 768 852.650667 768 828.288V384a42.666667 42.666667 0 1 1 85.333333 0v444.288C853.333333 902.293333 791.808 960 718.762667 960H305.237333C232.192 960 170.666667 902.293333 170.666667 828.288V384a42.666667 42.666667 0 0 1 42.666666-42.666667z" fill="#2c2c2c" p-id="5168"></path></svg>